<?xml version="1.0" encoding="utf-8"?>
<!-- Generator: Adobe Illustrator 16.0.4, SVG Export Plug-In . SVG Version: 6.00 Build 0)  -->
<!DOCTYPE svg PUBLIC "-//W3C//DTD SVG 1.1//EN" "http://www.w3.org/Graphics/SVG/1.1/DTD/svg11.dtd">
<svg version="1.1" id="Layer_1" xmlns="http://www.w3.org/2000/svg" xmlns:xlink="http://www.w3.org/1999/xlink" x="0px" y="0px"
	 width="549px" height="99px" viewBox="0 0 549 99" enable-background="new 0 0 549 99" xml:space="preserve">
<g>
	<path fill="#B1DA7C" d="M299.837,85.434L299.837,85.434L299.837,85.434z"/>
	<path fill="#B1DA7C" d="M260.629,86.082L260.629,86.082L260.629,86.082z"/>
	<path fill="#B1DA7C" d="M402.739,84.598L402.739,84.598L402.739,84.598z"/>
	<path fill="#B1DA7C" d="M509.994,85.236v0.004V85.236z"/>
	<path fill="#B1DA7C" d="M368.158,86.275v0.005V86.275z"/>
	<path fill="#B1DA7C" d="M304.689,50.902c0.422-0.729,0.467-1.491,0.121-2.104c-0.348-0.608-1.023-0.963-1.862-0.974l-16.015-0.208
		c-0.086-0.001-0.15-0.011-0.195-0.021c0.014-0.043,0.041-0.104,0.084-0.178l3.33-5.449c0.371-0.609,1.355-1.169,2.072-1.175
		l25.308-0.218c1.378-0.012,2.95-0.913,3.657-2.096l5.203-8.708c0.432-0.722,0.48-1.358,0.143-1.959
		c-0.34-0.597-1.01-0.816-1.883-0.816h-0.002L293.421,27.3c-1.03,0.015-2.72-0.044-3.752-0.056l-4.278-0.074
		c-0.498-0.179-1.051-0.238-1.602-0.106c-0.111,0.027-0.223,0.05-0.333,0.077c-0.546,0.027-1.112,0.183-1.642,0.44
		c-10,2.957-19.757,10.052-28.434,16.36c-2.955,2.149-5.857,4.26-8.636,6.116c-2.913-4.354-8.389-5.958-14.677-4.181
		c-5.374,1.518-10.854,5.542-10.422,10.015c0.229,2.39,2.071,5.365,9.533,5.987c3.916,0.328,8.023-1.012,12.387-3.33
		c0.131,3.847-1.211,8.37-3.863,12.567c-4.291,6.793-10.72,10.82-17.192,10.734c-3.038-0.031-3.995-1.373-4.45-2.379
		c-1.66-3.67,0.246-10.771,3.129-15.121c0.404-0.525,0.812-1.063,1.218-1.609l-4.377-3.51c-0.46,0.535-0.909,1.127-1.343,1.77
		c-14.101,18.406-23.714,22.126-26.527,20.062c-1.244-0.916-2.197-3.789-1.303-8.998c7.337-5.815,15.305-13.311,23.647-22.3
		c9.755-10.519,14.518-19.807,12.74-24.844c-0.659-1.867-2.161-3.102-4.12-3.386c-5.36-0.786-13.75,5.926-22.472,17.934
		c-7.763,10.688-12.843,21.027-14.814,29.358c-9.606,7.445-18.756,12.455-25.127,11.918c-2.463-0.206-3.246-1.439-3.621-2.35
		c-0.426-1.033-0.589-2.434-0.415-4.188c1.92-1.349,3.666-2.636,5.148-3.769c11.405-8.683,21.956-18.938,27.533-26.771
		c3.377-4.742,6.073-9.575,7.591-13.608c1.959-5.205,1.811-8.593-0.453-10.358c-3.407-2.658-8.418,1.202-10.065,2.472
		c-3.895,3-8.877,8.05-14.808,15.009c-11.273,13.226-18.178,24.937-20.08,33.743c-8.851,5.98-16.611,9.683-21.523,10.16
		c-1.844,0.183-3.157-0.087-3.907-0.794c-0.619-0.584-1.127-1.213-1.541-1.869c7.175-4.021,13.849-8.849,18.314-13.332
		c5.962-5.982,8.326-13.169,5.746-17.468c-1.165-1.942-4.289-4.847-12.113-2.481c-8.393,2.536-16.191,11.613-18.541,21.583
		c-0.761,3.229-0.872,6.272-0.359,9.027c-0.617,0.311-1.234,0.607-1.849,0.896c-9.201,4.338-14.751,5-16.771,4.369
		c0.656-2.439,5.231-8.646,8.053-12.474c7.077-9.599,12.667-17.178,9.354-21.803c-2.199-3.068-6.962-3.163-15.926-0.313
		c-3.625,1.153-7.125,2.455-10.466,3.867c2.341-3.943,4.791-8.047,7.332-12.135c8.231-3.514,15.558-7.282,21.155-11.24
		c11.698-8.271,17.774-16.302,16.671-22.035c-0.459-2.388-2.13-4.094-4.584-4.683c-7.354-1.765-17.781,6.632-24.854,15.734
		c-4.248,5.468-8.328,11.564-12.195,17.722C53.993,48.433,1.378,58.854,0.723,58.982c-1.521,0.298-2.512,1.771-2.214,3.293
		c0.298,1.521,1.772,2.514,3.293,2.215c2.521-0.494,47.721-9.448,82.827-22.814c-1.547,2.571-3.053,5.11-4.515,7.574
		c-1.048,1.768-2.113,3.562-3.185,5.352C60.068,63.488,49.137,74.67,49.804,81.336c0.257,2.571,2.169,4.359,4.99,4.667
		c0.312,0.034,0.624,0.052,0.935,0.052c8.009-0.002,15.576-11.166,25.233-27.258c5.367-2.715,11.188-5.094,17.222-7.013
		c6.6-2.099,8.92-1.876,9.58-1.706c-0.037,0.52-0.354,1.988-2.328,5.249c-1.813,2.996-4.399,6.502-6.899,9.893
		c-2.786,3.777-5.416,7.345-7.144,10.371c-0.978,1.714-3.954,6.927-0.321,9.653c4.991,3.738,15.313,0.154,23.095-3.512
		c0.475-0.227,0.95-0.452,1.424-0.688c0.723,1.22,1.616,2.332,2.674,3.33c1.982,1.871,4.777,2.646,8.307,2.299
		c6.167-0.604,13.876-4.545,20.607-8.795c0.146,0.946,0.388,1.833,0.727,2.654c1.405,3.409,4.367,5.472,8.342,5.805
		c6.317,0.522,14.789-2.918,24.678-9.837c0.104,4.07,1.376,7.221,3.911,9.083c5.655,4.165,14.613,0.327,25.016-10.315
		c-0.094,2.183,0.165,4.229,1.097,6.291c1.636,3.611,5.011,5.441,9.504,5.441c0.075,0,0.149,0,0.224,0
		c8.356,0,16.482-4.743,21.772-13.118c3.947-6.249,5.492-12.948,4.396-18.6c3.139-2.05,6.412-4.368,9.838-6.86
		c6.28-4.567,12.705-9.208,19.188-12.453L247.08,83.848c-0.435,0.723-0.488,1.493-0.147,2.104c0.34,0.604,1.02,0.95,1.862,0.959
		L260.602,87h0.028c1.376,0,2.943-0.875,3.645-2.052l12.043-20.275c0.35-0.587,1.3-1.155,2.021-1.155l0,0l16.276,0.397l0.066,0.026
		c1.371,0,2.922-0.873,3.604-2.047L304.689,50.902z M229.649,56.288c-2.85-0.238-3.976-0.808-4.346-1.062
		c0.526-1.137,3.798-3.707,8.055-4.326c2.168-0.316,4.965-0.158,6.614,2.117C236.096,55.202,232.576,56.533,229.649,56.288z
		 M201.198,42.768c9.227-12.703,15.189-15.494,16.818-15.68c0.133,1.605-1.373,7.808-11.624,18.86
		c-5.103,5.502-10.735,11.086-16.432,16.126C192.503,56.074,196.353,49.438,201.198,42.768z M171.898,40.826
		c10.018-11.753,14.834-15.099,16.758-16.05c-0.387,2.53-2.629,8.286-7.866,15.638c-5.121,7.19-14.794,16.636-25.411,24.836
		C158.203,58.97,163.395,50.803,171.898,40.826z M106.169,19.386c8.319-10.706,15.519-13.789,18.438-13.789
		c0.259,0,0.485,0.024,0.675,0.07c0.342,0.082,0.354,0.141,0.381,0.285c0.273,1.418-1.787,7.474-14.4,16.392
		c-3.443,2.435-7.614,4.804-12.298,7.092C101.311,25.934,103.717,22.543,106.169,19.386z M55.409,80.424
		c0.271-1.486,2.68-5.89,10.017-11.781c1.617-1.3,3.344-2.563,5.166-3.793C64.748,73.861,59.224,80.829,55.409,80.424z
		 M119.446,68.016c1.858-7.883,8.316-15.565,14.701-17.5c1.532-0.461,2.766-0.648,3.693-0.648c1.084,0,1.75,0.26,1.983,0.646
		c0.89,1.482-0.547,6.24-4.91,10.619c-3.83,3.846-9.677,8.115-15.961,11.751C118.868,71.02,119.147,69.283,119.446,68.016z
		 M260.629,86.082L260.629,86.082L260.629,86.082L260.629,86.082z"/>
	<path fill="#B1DA7C" d="M539.047,26.338c-0.336-0.597-1.004-0.938-1.834-0.938L490.1,26.161c-1.375,0.022-2.941,0.928-3.649,2.105
		l-32.9,54.694c-0.434,0.722-0.487,1.485-0.146,2.095c0.34,0.608,1.019,0.963,1.857,0.973l11.833,0.123
		c1.354,0,2.948-0.832,3.713-1.938l10.888-15.717c0.105-0.157,0.219-0.229,0.275-0.229c0.062,0,0.17,0.069,0.277,0.23l10.229,15.417
		c0.755,1.132,2.346,1.912,3.701,1.938L509.939,86h0.055c0.831,0,1.498-0.25,1.831-0.848c0.335-0.604,0.271-1.312-0.17-2.028
		L498.01,61.041c-0.056-0.09-0.083-0.148-0.095-0.193c0.044-0.015,0.116-0.021,0.223-0.029l19.169-0.732
		c1.363-0.052,2.931-0.97,3.641-2.141l17.942-29.526C539.328,27.695,539.385,26.938,539.047,26.338z M496.829,45.919l3.282-5.719
		c0.535-0.932,1.852-1.691,2.926-1.688l9.271,0.031c1.075,0.004,1.52,0.77,0.981,1.701l-3.281,5.718
		c-0.534,0.932-1.851,1.692-2.925,1.688l-9.272-0.031C496.736,47.617,496.294,46.851,496.829,45.919z M509.994,85.236
		L509.994,85.236v0.003V85.236z"/>
	<path fill="#B1DA7C" d="M429.146,26.825c-0.31-0.61-0.979-0.96-1.854-0.96l-10.329,0.049c-1.335,0.006-2.965,0.805-3.79,1.856
		L386.65,61.609l7.975-32.584c0.186-0.758,0.038-1.516-0.402-2.078c-0.438-0.56-1.136-0.881-1.91-0.881l-9.375,0.213
		c-1.463,0.032-2.885,1.169-3.237,2.588l-13.845,55.395c-0.188,0.758-0.045,1.516,0.396,2.079c0.438,0.562,1.133,0.884,1.906,0.884
		l15.271-0.343c1.341-0.03,2.951-0.862,3.75-1.938l41.643-56.062C429.335,28.185,429.454,27.436,429.146,26.825z M368.158,86.275
		L368.158,86.275v0.005V86.275z"/>
	<path fill="#B1DA7C" d="M351.963,46.747l-14.045,0.273c-0.049,0-0.089-0.003-0.123-0.007c0.016-0.037,0.038-0.081,0.068-0.131
		l3.328-5.447c0.373-0.609,1.357-1.169,2.074-1.175l25.307-0.22c1.378-0.012,2.951-0.913,3.658-2.096l5.201-8.706
		c0.433-0.722,0.48-1.588,0.143-2.19c-0.34-0.598-1.012-1.048-1.885-1.048l0,0l-31.229,0.534c-1.033,0.015-2.722,0.071-3.752,0.061
		l-6.047-0.034c-1.375,0-2.942,0.897-3.647,2.069l-32.896,54.695c-0.435,0.724-0.488,1.301-0.146,1.907
		c0.342,0.604,1.021,0.767,1.863,0.767h0.003l42.079,0.142c1.373,0,2.96-0.854,3.614-2.062l4.93-9.09
		c0.396-0.734,0.418-1.479,0.062-2.076c-0.356-0.599-1.039-0.933-1.891-0.933l-26.078,0.166c-0.064,0-0.119-0.002-0.158-0.008
		c0.016-0.041,0.039-0.091,0.076-0.147l6.047-9.882c0.375-0.61,1.369-1.18,2.084-1.19l14.166-0.241
		c1.375-0.021,2.94-0.933,3.646-2.113l5.236-8.805c0.43-0.721,0.479-1.479,0.142-2.078
		C353.456,47.088,352.788,46.747,351.963,46.747z M299.837,85.434L299.837,85.434L299.837,85.434L299.837,85.434z"/>
	<path fill="#B1DA7C" d="M453.425,72.1c-0.354-0.599-1.039-0.938-1.888-0.938l-26.081,0.155c-0.066,0-0.119-0.004-0.16-0.012
		c0.017-0.039,0.04-0.09,0.076-0.146l6.048-9.886c0.375-0.609,1.367-1.181,2.084-1.188l14.164-0.242
		c1.376-0.021,2.945-0.933,3.648-2.112l5.234-8.806c0.434-0.722,0.48-1.479,0.144-2.077c-0.337-0.594-1.005-0.935-1.83-0.935
		l-14.046,0.275c-0.049,0-0.09-0.003-0.124-0.007c0.016-0.036,0.037-0.081,0.064-0.132l3.329-5.45
		c0.372-0.609,1.361-1.169,2.074-1.176l25.308-0.218c1.382-0.012,2.951-0.913,3.658-2.096l5.2-8.706
		c0.432-0.722,0.484-1.67,0.144-2.271c-0.34-0.598-1.011-1.129-1.884-1.129h-0.001l-31.229,0.617
		c-1.032,0.014-2.726,0.112-3.752,0.101l-6.048-0.013c-1.375,0-2.941,0.907-3.646,2.079l-32.898,54.695
		c-0.435,0.728-0.484,1.227-0.145,1.83c0.342,0.604,1.021,0.688,1.867,0.688h0.003l42.081,0.224c1.373,0,2.96-0.812,3.61-2.021
		l4.933-9.068C453.762,73.398,453.783,72.7,453.425,72.1z M402.739,84.598L402.739,84.598L402.739,84.598L402.739,84.598z"/>
</g>
</svg>
