<?xml version="1.0" encoding="utf-8"?>
<!-- Generator: Adobe Illustrator 16.0.0, SVG Export Plug-In . SVG Version: 6.00 Build 0)  -->
<!DOCTYPE svg PUBLIC "-//W3C//DTD SVG 1.1//EN" "http://www.w3.org/Graphics/SVG/1.1/DTD/svg11.dtd">
<svg version="1.1" id="Layer_1" xmlns="http://www.w3.org/2000/svg" xmlns:xlink="http://www.w3.org/1999/xlink" x="0px" y="0px"
	 width="1069.545px" height="177px" viewBox="0 0 1069.545 177" enable-background="new 0 0 1069.545 177" xml:space="preserve">
<g>
	<path fill="none" d="M112.265,158.556c7.521,0.798,18.409-12.937,29.928-30.703c-3.592,2.42-6.995,4.917-10.183,7.478
		C117.547,146.945,112.798,155.626,112.265,158.556z"/>
	<path fill="none" d="M278.661,99.594c-0.459-0.765-1.771-1.278-3.909-1.278c-1.829,0-4.262,0.375-7.281,1.287
		c-12.586,3.804-25.315,18.955-28.978,34.492c-0.589,2.501-1.139,5.922-0.971,9.597c12.386-7.167,23.912-15.585,31.461-23.164
		C277.582,111.896,280.416,102.518,278.661,99.594z"/>
	<polygon fill="none" points="594.076,168.432 594.076,168.432 594.076,168.432 	"/>
	<polygon fill="none" points="516.791,169.708 516.791,169.711 516.791,169.708 	"/>
	<path fill="none" d="M250.749,11.759c-0.055-0.284-0.078-0.4-0.752-0.562c-0.375-0.089-0.818-0.138-1.33-0.138
		c-5.756,0-19.948,6.079-36.346,27.181c-4.833,6.222-9.577,12.907-14.2,19.81c9.233-4.511,17.456-9.182,24.242-13.98
		C247.227,26.491,251.287,14.555,250.749,11.759z"/>
	<path fill="none" d="M463.032,100.363c-8.391,1.218-14.84,6.292-15.877,8.527c0.73,0.498,2.951,1.621,8.567,2.089
		c5.771,0.482,12.708-2.14,20.347-6.446C472.819,100.05,467.306,99.738,463.032,100.363z"/>
	<path fill="none" d="M409.88,90.598c20.207-21.787,23.175-34.012,22.913-37.177c-3.211,0.367-14.963,5.868-33.151,30.908
		c-9.551,13.147-17.139,26.229-22.151,38.057C388.719,112.452,399.821,101.444,409.88,90.598z"/>
	<path fill="none" d="M359.414,79.69c10.321-14.493,14.743-25.839,15.505-30.826c-3.792,1.875-13.285,8.47-33.033,31.637
		c-16.763,19.666-26.997,35.765-32.561,48.145C330.251,112.482,349.32,93.863,359.414,79.69z"/>
	<polygon fill="none" points="796.912,166.781 796.912,166.781 796.912,166.781 	"/>
	<polygon fill="none" points="1008.329,168.042 1008.329,168.049 1008.329,168.042 	"/>
	<polygon fill="none" points="728.746,170.092 728.746,170.1 728.746,170.092 	"/>
	<path fill="#FFFFFF" d="M603.642,100.364c0.832-1.43,0.919-2.939,0.237-4.138c-0.68-1.2-2.018-1.9-3.671-1.921l-31.567-0.409
		c-0.172-0.002-0.299-0.021-0.386-0.043c0.028-0.085,0.079-0.204,0.168-0.351l6.562-10.742c0.732-1.201,2.68-2.305,4.087-2.316
		l49.883-0.43c2.716-0.023,5.816-1.799,7.21-4.132l10.255-17.164c0.851-1.423,0.953-2.801,0.28-3.985
		c-0.667-1.177-1.99-1.734-3.712-1.734h-0.003l-61.559,0.722c-2.034,0.028-5.362-0.025-7.396-0.048l-8.436-0.116
		c-0.979-0.354-2.067-0.453-3.153-0.193c-0.219,0.053-0.438,0.105-0.657,0.159c-1.078,0.054-2.192,0.364-3.235,0.871
		c-19.711,5.828-38.947,19.817-56.042,32.25c-5.825,4.237-11.545,8.397-17.023,12.049c-5.743-8.58-16.535-11.735-28.93-8.232
		c-10.593,2.991-21.394,10.924-20.545,19.734c0.453,4.711,4.082,10.583,18.792,11.81c7.719,0.646,15.814-1.995,24.417-6.563
		c0.259,7.578-2.387,16.498-7.615,24.773c-8.458,13.39-21.131,21.336-33.889,21.164c-5.988-0.063-7.874-2.707-8.771-4.689
		c-3.273-7.233,0.485-21.231,6.167-29.804c0.797-1.042,1.6-2.104,2.401-3.18l-8.628-6.914c-0.907,1.054-1.792,2.222-2.646,3.483
		c-27.796,36.282-46.745,43.614-52.291,39.542c-2.452-1.805-4.331-7.468-2.568-17.737c14.463-11.464,30.169-26.23,46.613-43.958
		c19.23-20.735,28.618-39.042,25.114-48.971c-1.299-3.681-4.26-6.113-8.121-6.675c-10.565-1.548-27.104,11.682-44.295,35.351
		c-15.303,21.065-25.317,41.447-29.202,57.869c-18.937,14.677-36.971,24.551-49.53,23.492c-4.855-0.406-6.398-2.836-7.136-4.63
		c-0.84-2.038-1.162-4.792-0.818-8.251c3.786-2.654,7.225-5.195,10.149-7.421c22.482-17.115,43.278-37.338,54.273-52.777
		c6.656-9.348,11.97-18.875,14.962-26.825c3.861-10.259,3.57-16.938-0.892-20.417c-6.716-5.239-16.595,2.37-19.841,4.872
		c-7.677,5.915-17.498,15.869-29.189,29.585c-22.222,26.07-35.832,49.156-39.58,66.514c-17.447,11.788-32.744,19.078-42.427,20.027
		c-3.635,0.354-6.224-0.172-7.701-1.566c-1.22-1.152-2.221-2.391-3.037-3.685c14.143-7.928,27.298-17.443,36.101-26.279
		c11.753-11.799,16.411-25.958,11.327-34.433c-2.297-3.828-8.455-9.554-23.877-4.89c-16.544,4.999-31.915,22.892-36.547,42.543
		c-1.5,6.365-1.719,12.367-0.707,17.798c-1.216,0.607-2.433,1.199-3.646,1.77c-18.14,8.547-29.082,9.854-33.063,8.609
		c1.293-4.81,10.312-17.041,15.874-24.582c13.95-18.918,24.969-33.86,18.439-42.977c-4.335-6.048-13.723-6.234-31.392-0.618
		c-7.146,2.273-14.045,4.839-20.631,7.623c4.615-7.772,9.444-15.861,14.453-23.919c16.226-6.927,30.667-14.355,41.7-22.156
		C251.81,36.8,263.787,20.968,261.613,9.669c-0.905-4.707-4.199-8.071-9.037-9.23c-14.496-3.479-35.049,13.072-48.99,31.013
		c-8.373,10.778-16.415,22.795-24.038,34.935C109.474,95.497,5.761,116.037,4.47,116.29c-2.998,0.587-4.953,3.494-4.365,6.493
		c0.587,2.998,3.493,4.954,6.492,4.365c4.97-0.973,94.067-18.623,163.267-44.969c-3.049,5.067-6.019,10.072-8.9,14.929
		c-2.067,3.484-4.165,7.021-6.279,10.55c-33.235,17.517-54.781,39.558-53.467,52.697c0.507,5.067,4.276,8.593,9.836,9.198
		c0.616,0.067,1.229,0.101,1.842,0.101c15.788-0.002,30.703-22.01,49.738-53.729c10.581-5.353,22.054-10.042,33.948-13.824
		c13.008-4.136,17.582-3.698,18.884-3.362c-0.073,1.025-0.697,3.92-4.588,10.347c-3.575,5.906-8.671,12.816-13.6,19.5
		c-5.491,7.445-10.676,14.478-14.082,20.442c-1.928,3.377-7.794,13.652-0.633,19.027c9.837,7.37,30.186,0.305,45.524-6.922
		c0.936-0.44,1.872-0.891,2.807-1.351c1.425,2.397,3.184,4.596,5.27,6.563c3.908,3.688,9.417,5.211,16.375,4.532
		c12.157-1.192,27.352-8.958,40.621-17.337c0.288,1.866,0.765,3.612,1.432,5.231c2.77,6.724,8.609,10.787,16.444,11.442
		c12.452,1.032,29.151-5.752,48.644-19.391c0.205,8.023,2.713,14.228,7.709,17.905c11.148,8.209,28.805,0.644,49.312-20.339
		c-0.185,4.302,0.325,8.8,2.163,12.862c3.224,7.124,9.876,11.099,18.733,11.192c0.148,0.001,0.294,0.002,0.442,0.002
		c16.472-0.001,32.488-9.812,42.917-26.32c7.781-12.317,10.826-25.76,8.667-36.895c6.188-4.034,12.64-8.727,19.393-13.639
		c12.379-9.003,25.044-18.208,37.821-24.605l-56.753,94.341c-0.857,1.424-0.963,2.929-0.291,4.129
		c0.671,1.199,2.009,1.61,3.67,1.625l23.271-0.08h0.056c2.711,0,5.8-1.465,7.183-3.787l23.662-39.835
		c0.689-1.156,2.909-2.212,3.909-2.212v0.01l32.159,0.811l0.173,0.067c2.704,0,5.777-1.714,7.124-4.029L603.642,100.364z
		 M455.722,110.979c-5.617-0.469-7.837-1.592-8.567-2.089c1.038-2.236,7.486-7.31,15.877-8.527
		c4.274-0.625,9.787-0.313,13.037,4.171C468.43,108.839,461.493,111.462,455.722,110.979z M399.641,84.329
		c18.188-25.04,29.94-30.541,33.151-30.908c0.263,3.165-2.706,15.39-22.913,37.177c-10.059,10.846-21.161,21.854-32.39,31.788
		C382.502,110.558,390.09,97.477,399.641,84.329z M341.886,80.501c19.748-23.167,29.241-29.762,33.033-31.637
		c-0.762,4.987-5.184,16.333-15.505,30.826c-10.094,14.173-29.163,32.792-50.089,48.956
		C314.89,116.266,325.124,100.167,341.886,80.501z M212.322,38.24c16.398-21.103,30.589-27.181,36.346-27.181
		c0.511,0,0.955,0.049,1.33,0.138c0.674,0.163,0.697,0.279,0.752,0.562c0.538,2.796-3.522,14.731-28.385,32.311
		c-6.786,4.798-15.009,9.469-24.242,13.98C202.745,51.147,207.488,44.462,212.322,38.24z M112.265,158.556
		c0.533-2.93,5.283-11.61,19.745-23.225c3.188-2.561,6.591-5.057,10.183-7.478C130.673,145.619,119.786,159.354,112.265,158.556z
		 M238.493,134.095c3.663-15.538,16.392-30.688,28.978-34.492c3.019-0.911,5.452-1.287,7.281-1.287c2.138,0,3.45,0.513,3.909,1.278
		c1.754,2.923-1.079,12.301-9.678,20.934c-7.549,7.579-19.075,15.997-31.461,23.164
		C237.354,140.017,237.904,136.596,238.493,134.095z M516.791,169.708L516.791,169.708v0.003V169.708z"/>
	<path fill="#FFFFFF" d="M1065.599,51.943c-0.661-1.176-1.979-1.85-3.616-1.85l-92.866,1.501c-2.71,0.045-5.806,1.829-7.201,4.15
		l-64.848,107.81c-0.855,1.423-0.962,2.929-0.291,4.129c0.67,1.201,2.007,1.9,3.668,1.918l23.324,0.245
		c2.665,0,5.811-1.643,7.319-3.821l21.453-30.98c0.215-0.31,0.432-0.449,0.551-0.449s0.335,0.142,0.545,0.459l20.163,30.39
		c1.481,2.232,4.618,3.994,7.295,4.042l27.127,0.514h0.107c1.638,0,2.952-0.72,3.608-1.896c0.661-1.185,0.539-2.698-0.334-4.113
		l-26.896-43.586c-0.11-0.177-0.163-0.32-0.187-0.408c0.086-0.03,0.229-0.064,0.438-0.073l37.785-1.458
		c2.688-0.102,5.77-1.915,7.169-4.215l35.376-58.211C1066.152,54.621,1066.265,53.127,1065.599,51.943z M982.381,90.542
		l6.469-11.272c1.054-1.837,3.649-3.334,5.768-3.327l18.274,0.061c2.118,0.008,2.988,1.517,1.936,3.354l-6.468,11.271
		c-1.054,1.836-3.648,3.334-5.768,3.327l-18.277-0.061C982.196,93.887,981.326,92.378,982.381,90.542z M1008.329,168.042
		L1008.329,168.042v0.006V168.042z"/>
	<path fill="#FFFFFF" d="M848.967,52.903c-0.604-1.203-1.923-1.892-3.648-1.892l-20.358,0.097c-2.633,0.013-5.844,1.585-7.471,3.659
		L765.2,121.472l15.72-64.231c0.366-1.495,0.075-2.988-0.795-4.096c-0.866-1.104-2.237-1.737-3.762-1.737l-18.482,0.42
		c-2.882,0.064-5.687,2.306-6.385,5.102l-27.287,109.192c-0.373,1.494-0.09,2.988,0.778,4.098c0.863,1.106,2.232,1.74,3.759,1.74
		l30.107-0.673c2.639-0.059,5.815-1.701,7.391-3.82l82.078-110.517C849.338,55.583,849.572,54.108,848.967,52.903z M728.746,170.092
		L728.746,170.092v0.008V170.092z"/>
	<path fill="#FFFFFF" d="M696.823,92.173l-27.685,0.538c-0.097,0-0.177-0.006-0.243-0.015c0.031-0.071,0.074-0.158,0.135-0.258
		l6.561-10.737c0.733-1.201,2.682-2.305,4.089-2.317l49.883-0.433c2.717-0.025,5.816-1.8,7.21-4.133l10.253-17.16
		c0.852-1.423,0.953-2.77,0.281-3.954c-0.668-1.179-1.99-1.705-3.713-1.705h-0.002l-61.559,0.692
		c-2.035,0.029-5.365-0.042-7.396-0.062l-11.92-0.158c-2.71,0-5.801,1.724-7.189,4.034l-64.845,107.791
		c-0.857,1.427-0.963,2.78-0.286,3.975c0.675,1.194,2.016,1.728,3.68,1.728h0.006l82.943,0.054c2.707-0.002,5.836-1.797,7.123-4.181
		l9.719-17.974c0.781-1.447,0.824-2.937,0.119-4.12c-0.704-1.181-2.047-1.849-3.722-1.849l-51.408,0.319
		c-0.131,0-0.235-0.008-0.314-0.021c0.03-0.078,0.078-0.176,0.15-0.294l11.922-19.478c0.738-1.206,2.695-2.324,4.108-2.347
		l27.92-0.477c2.71-0.046,5.802-1.838,7.189-4.17l10.323-17.352c0.846-1.422,0.947-2.915,0.276-4.095
		C699.767,92.844,698.451,92.173,696.823,92.173z M594.076,168.432L594.076,168.432L594.076,168.432L594.076,168.432z"/>
	<path fill="#FFFFFF" d="M896.824,142.148c-0.704-1.181-2.047-1.857-3.722-1.857l-51.41,0.314c-0.131,0-0.235-0.01-0.314-0.024
		c0.03-0.078,0.078-0.178,0.15-0.295l11.922-19.481c0.738-1.206,2.695-2.325,4.108-2.348l27.92-0.477
		c2.712-0.046,5.804-1.838,7.189-4.17l10.326-17.352c0.847-1.423,0.947-2.916,0.276-4.095c-0.666-1.17-1.98-1.842-3.607-1.842
		l-27.687,0.542c-0.097,0-0.178-0.005-0.244-0.014c0.031-0.072,0.074-0.159,0.135-0.26l6.562-10.743
		c0.733-1.201,2.682-2.305,4.089-2.317l49.885-0.43c2.717-0.023,5.816-1.799,7.21-4.132l10.25-17.161
		c0.852-1.423,0.953-2.945,0.281-4.129c-0.668-1.178-1.99-1.879-3.713-1.879h-0.003l-61.559,0.868
		c-2.034,0.028-5.365,0.047-7.396,0.026l-11.919-0.113c-2.709,0-5.8,1.745-7.188,4.056l-64.847,107.799
		c-0.857,1.427-0.963,2.61-0.286,3.805c0.675,1.194,2.016,1.559,3.68,1.559h0.006l82.947,0.228c2.707-0.003,5.836-1.71,7.123-4.094
		l9.717-17.928C897.486,144.76,897.529,143.332,896.824,142.148z M796.912,166.781L796.912,166.781L796.912,166.781L796.912,166.781
		z"/>
</g>
</svg>
