<?xml version="1.0" encoding="utf-8"?>
<!-- Generator: Adobe Illustrator 16.0.0, SVG Export Plug-In . SVG Version: 6.00 Build 0)  -->
<!DOCTYPE svg PUBLIC "-//W3C//DTD SVG 1.1//EN" "http://www.w3.org/Graphics/SVG/1.1/DTD/svg11.dtd">
<svg version="1.1" id="Layer_1" xmlns="http://www.w3.org/2000/svg" xmlns:xlink="http://www.w3.org/1999/xlink" x="0px" y="0px"
	 width="549px" height="99px" viewBox="0 0 549 99" enable-background="new 0 0 549 99" xml:space="preserve">
<g>
	<path fill="none" d="M55.409,80.424c3.815,0.405,9.339-6.563,15.183-15.576c-1.822,1.228-3.549,2.494-5.166,3.793
		C58.088,74.534,55.679,78.938,55.409,80.424z"/>
	<path fill="none" d="M139.824,50.512c-0.233-0.388-0.899-0.648-1.983-0.648c-0.928,0-2.162,0.19-3.693,0.652
		c-6.385,1.93-12.843,9.616-14.701,17.499c-0.299,1.269-0.578,3.004-0.493,4.868c6.284-3.636,12.131-7.906,15.961-11.751
		C139.276,56.752,140.714,51.995,139.824,50.512z"/>
	<polygon fill="none" points="299.837,85.434 299.837,85.434 299.837,85.434 	"/>
	<polygon fill="none" points="260.629,86.082 260.629,86.083 260.629,86.082 	"/>
	<path fill="none" d="M125.663,5.952c-0.027-0.144-0.039-0.203-0.381-0.285c-0.19-0.045-0.416-0.07-0.675-0.07
		c-2.92,0-10.12,3.083-18.438,13.789c-2.452,3.157-4.858,6.548-7.204,10.05c4.684-2.289,8.855-4.658,12.298-7.092
		C123.876,13.426,125.936,7.371,125.663,5.952z"/>
	<path fill="none" d="M233.357,50.902c-4.257,0.618-7.528,3.192-8.055,4.326c0.37,0.253,1.497,0.822,4.346,1.061
		c2.927,0.245,6.447-1.086,10.322-3.271C238.322,50.743,235.526,50.585,233.357,50.902z"/>
	<path fill="none" d="M206.393,45.948c10.251-11.053,11.757-17.255,11.624-18.86c-1.629,0.186-7.591,2.977-16.818,15.68
		c-4.845,6.67-8.695,13.306-11.238,19.307C195.657,57.035,201.29,51.45,206.393,45.948z"/>
	<path fill="none" d="M180.791,40.414c5.236-7.353,7.479-13.108,7.866-15.638c-1.923,0.951-6.74,4.296-16.758,16.05
		c-8.504,9.977-13.696,18.144-16.519,24.424C165.996,57.05,175.67,47.604,180.791,40.414z"/>
	<polygon fill="none" points="402.739,84.597 402.739,84.597 402.739,84.597 	"/>
	<polygon fill="none" points="509.994,85.236 509.994,85.24 509.994,85.236 	"/>
	<polygon fill="none" points="368.158,86.276 368.158,86.28 368.158,86.276 	"/>
	<path d="M304.69,50.902c0.422-0.725,0.466-1.491,0.121-2.1c-0.345-0.608-1.024-0.963-1.863-0.974l-16.014-0.208
		c-0.087-0.001-0.151-0.011-0.196-0.021c0.014-0.043,0.041-0.104,0.085-0.178l3.329-5.449c0.372-0.609,1.359-1.169,2.073-1.175
		l25.307-0.218c1.378-0.012,2.951-0.913,3.658-2.096l5.202-8.708c0.432-0.722,0.484-1.358,0.143-1.959
		c-0.339-0.597-1.01-0.816-1.883-0.816h-0.001l-31.229,0.303c-1.032,0.015-2.72-0.044-3.752-0.056l-4.28-0.074
		c-0.497-0.179-1.049-0.238-1.6-0.106c-0.111,0.027-0.222,0.05-0.333,0.077c-0.546,0.027-1.112,0.183-1.641,0.44
		c-10,2.957-19.758,10.052-28.431,16.36c-2.955,2.149-5.857,4.26-8.636,6.112c-2.913-4.353-8.389-5.954-14.677-4.177
		c-5.374,1.518-10.854,5.542-10.422,10.011c0.229,2.39,2.071,5.369,9.533,5.991c3.916,0.328,8.023-1.012,12.387-3.33
		c0.131,3.844-1.211,8.37-3.863,12.567c-4.291,6.793-10.72,10.824-17.192,10.737c-3.038-0.032-3.995-1.373-4.45-2.379
		c-1.66-3.669,0.246-10.771,3.129-15.12c0.404-0.529,0.812-1.067,1.218-1.613l-4.377-3.507c-0.46,0.535-0.909,1.127-1.343,1.767
		c-14.101,18.406-23.714,22.126-26.527,20.06c-1.244-0.916-2.197-3.789-1.303-8.999c7.337-5.815,15.305-13.307,23.647-22.3
		c9.755-10.519,14.518-19.807,12.74-24.844c-0.659-1.867-2.161-3.102-4.12-3.386c-5.36-0.786-13.75,5.926-22.472,17.934
		c-7.763,10.687-12.843,21.027-14.814,29.358c-9.606,7.446-18.756,12.455-25.127,11.918c-2.463-0.206-3.246-1.439-3.621-2.349
		c-0.426-1.034-0.589-2.431-0.415-4.186c1.92-1.346,3.666-2.635,5.148-3.765c11.405-8.683,21.956-18.942,27.533-26.774
		c3.377-4.742,6.073-9.575,7.591-13.608c1.959-5.205,1.811-8.593-0.453-10.358c-3.407-2.658-8.418,1.202-10.065,2.472
		c-3.895,3-8.877,8.05-14.808,15.009c-11.273,13.226-18.178,24.937-20.08,33.743c-8.851,5.98-16.611,9.679-21.523,10.16
		c-1.844,0.179-3.157-0.087-3.907-0.794c-0.619-0.584-1.127-1.213-1.541-1.869c7.175-4.022,13.849-8.849,18.314-13.332
		c5.962-5.986,8.326-13.169,5.746-17.468c-1.165-1.942-4.289-4.847-12.113-2.481c-8.393,2.536-16.191,11.613-18.541,21.583
		c-0.761,3.229-0.872,6.274-0.359,9.029c-0.617,0.308-1.234,0.608-1.849,0.898c-9.203,4.336-14.753,4.999-16.773,4.367
		c0.656-2.44,5.231-8.645,8.053-12.471c7.077-9.598,12.667-17.178,9.354-21.803c-2.199-3.068-6.962-3.163-15.926-0.313
		c-3.625,1.153-7.125,2.455-10.466,3.867c2.341-3.943,4.791-8.047,7.332-12.135c8.231-3.514,15.558-7.282,21.155-11.24
		c11.698-8.271,17.774-16.302,16.671-22.035c-0.459-2.388-2.13-4.094-4.584-4.683c-7.354-1.765-17.781,6.632-24.854,15.734
		c-4.248,5.468-8.328,11.564-12.195,17.722C53.993,48.433,1.378,58.854,0.723,58.982c-1.521,0.298-2.512,1.772-2.214,3.294
		c0.298,1.521,1.772,2.513,3.293,2.214c2.521-0.494,47.721-9.448,82.827-22.814c-1.547,2.571-3.053,5.11-4.515,7.574
		c-1.048,1.768-2.113,3.562-3.185,5.352C60.068,63.488,49.137,74.67,49.804,81.336c0.257,2.571,2.169,4.359,4.99,4.667
		c0.312,0.034,0.624,0.051,0.935,0.051c8.009-0.001,15.576-11.166,25.233-27.257c5.367-2.715,11.188-5.094,17.222-7.013
		c6.6-2.099,8.92-1.876,9.58-1.706c-0.037,0.52-0.354,1.989-2.328,5.249c-1.813,2.996-4.399,6.502-6.899,9.893
		c-2.786,3.777-5.416,7.345-7.144,10.371c-0.978,1.713-3.954,6.926-0.321,9.653c4.991,3.739,15.313,0.155,23.095-3.512
		c0.475-0.223,0.95-0.452,1.424-0.685c0.723,1.216,1.616,2.332,2.674,3.33c1.982,1.871,4.777,2.644,8.307,2.299
		c6.167-0.605,13.876-4.545,20.607-8.795c0.146,0.946,0.388,1.833,0.727,2.654c1.405,3.411,4.367,5.472,8.342,5.805
		c6.317,0.524,14.789-2.918,24.678-9.837c0.104,4.07,1.376,7.218,3.911,9.083c5.655,4.165,14.613,0.327,25.016-10.318
		c-0.094,2.182,0.165,4.23,1.097,6.291c1.636,3.614,5.011,5.444,9.504,5.444c0.075,0,0.149,0,0.224,0
		c8.356,0,16.482-4.743,21.772-13.118c3.947-6.249,5.492-12.951,4.396-18.6c3.139-2.047,6.412-4.368,9.838-6.86
		c6.28-4.567,12.705-9.208,19.188-12.453l-28.792,47.875c-0.435,0.723-0.488,1.494-0.147,2.102c0.34,0.608,1.02,0.953,1.862,0.959
		L260.602,87h0.028c1.376,0,2.943-0.875,3.645-2.052l12.043-20.275c0.35-0.587,1.3-1.155,2.022-1.155l0,0l16.276,0.397l0.068,0.027
		c1.372,0,2.922-0.873,3.605-2.047L304.69,50.902z M229.649,56.288c-2.85-0.238-3.976-0.808-4.346-1.061
		c0.526-1.134,3.798-3.708,8.055-4.326c2.168-0.317,4.965-0.159,6.614,2.116C236.096,55.202,232.576,56.533,229.649,56.288z
		 M201.198,42.768c9.227-12.703,15.189-15.494,16.818-15.68c0.133,1.605-1.373,7.808-11.624,18.86
		c-5.103,5.502-10.735,11.086-16.432,16.126C192.503,56.074,196.353,49.438,201.198,42.768z M171.898,40.826
		c10.018-11.753,14.834-15.099,16.758-16.05c-0.387,2.53-2.629,8.286-7.866,15.638c-5.121,7.19-14.794,16.636-25.411,24.836
		C158.203,58.97,163.395,50.803,171.898,40.826z M106.169,19.386c8.319-10.706,15.519-13.789,18.438-13.789
		c0.259,0,0.485,0.024,0.675,0.07c0.342,0.082,0.354,0.141,0.381,0.285c0.273,1.418-1.787,7.474-14.4,16.392
		c-3.443,2.435-7.614,4.804-12.298,7.092C101.311,25.934,103.717,22.543,106.169,19.386z M55.409,80.424
		c0.271-1.486,2.68-5.89,10.017-11.782c1.617-1.299,3.344-2.566,5.166-3.793C64.748,73.861,59.224,80.829,55.409,80.424z
		 M119.446,68.015c1.858-7.882,8.316-15.568,14.701-17.499c1.532-0.462,2.766-0.652,3.693-0.652c1.084,0,1.75,0.26,1.983,0.648
		c0.89,1.483-0.547,6.241-4.91,10.62c-3.83,3.845-9.677,8.115-15.961,11.751C118.868,71.019,119.147,69.283,119.446,68.015z
		 M260.629,86.082L260.629,86.082v0.001V86.082z"/>
	<path d="M539.047,26.338c-0.336-0.597-1.004-0.938-1.834-0.938L490.1,26.161c-1.375,0.022-2.945,0.928-3.653,2.105L453.549,82.96
		c-0.434,0.722-0.488,1.485-0.148,2.094c0.34,0.609,1.019,0.964,1.861,0.973l11.833,0.124c1.352,0,2.948-0.833,3.713-1.938
		l10.884-15.717c0.109-0.157,0.219-0.228,0.279-0.228s0.17,0.072,0.277,0.233l10.229,15.417c0.751,1.132,2.342,1.912,3.701,1.936
		L509.939,86h0.055c0.831,0,1.498-0.25,1.831-0.847c0.335-0.601,0.273-1.312-0.17-2.029L498.01,61.041
		c-0.056-0.09-0.083-0.149-0.095-0.193c0.044-0.015,0.116-0.025,0.223-0.029l19.169-0.736c1.363-0.052,2.927-0.97,3.637-2.137
		l17.946-29.53C539.328,27.695,539.385,26.938,539.047,26.338z M496.829,45.919l3.282-5.719c0.535-0.932,1.852-1.691,2.926-1.688
		l9.271,0.031c1.075,0.004,1.516,0.77,0.981,1.701l-3.281,5.718c-0.534,0.932-1.851,1.692-2.925,1.688l-9.272-0.031
		C496.736,47.617,496.294,46.851,496.829,45.919z M509.994,85.236L509.994,85.236v0.003V85.236z"/>
	<path d="M429.147,26.825c-0.307-0.61-0.976-0.96-1.851-0.96l-10.329,0.049c-1.335,0.006-2.965,0.805-3.79,1.856l-26.527,33.84
		l7.975-32.585c0.186-0.758,0.038-1.516-0.403-2.078c-0.439-0.56-1.135-0.881-1.909-0.881l-9.376,0.213
		c-1.462,0.032-2.884,1.169-3.239,2.588l-13.843,55.395c-0.189,0.758-0.045,1.516,0.395,2.079c0.438,0.561,1.133,0.883,1.907,0.883
		l15.273-0.342c1.339-0.03,2.951-0.863,3.75-1.938l41.639-56.066C429.335,28.185,429.454,27.436,429.147,26.825z M368.158,86.276
		L368.158,86.276v0.004V86.276z"/>
	<path d="M351.963,46.747l-14.045,0.273c-0.049,0-0.089-0.003-0.123-0.007c0.016-0.037,0.038-0.081,0.068-0.131l3.328-5.447
		c0.373-0.609,1.361-1.169,2.075-1.175l25.306-0.22c1.378-0.012,2.951-0.913,3.658-2.096l5.202-8.706
		c0.432-0.722,0.483-1.588,0.142-2.19C377.235,26.45,376.563,26,375.69,26c0,0-0.001,0-0.001,0l-31.229,0.534
		c-1.033,0.015-2.722,0.071-3.752,0.061l-6.047-0.034c-1.375,0-2.942,0.897-3.647,2.069l-32.896,54.695
		c-0.435,0.724-0.488,1.301-0.146,1.907c0.343,0.605,1.023,0.767,1.867,0.767h0.003l42.079,0.142c1.373,0,2.96-0.854,3.614-2.063
		l4.93-9.09c0.396-0.734,0.418-1.476,0.06-2.076c-0.357-0.599-1.038-0.931-1.888-0.931l-26.08,0.166
		c-0.066,0-0.119-0.002-0.159-0.009c0.015-0.04,0.04-0.088,0.076-0.148l6.048-9.881c0.375-0.611,1.368-1.179,2.084-1.191
		l14.165-0.241c1.375-0.023,2.943-0.933,3.647-2.115l5.237-8.803c0.429-0.721,0.48-1.479,0.141-2.078
		C353.456,47.088,352.788,46.747,351.963,46.747z M299.837,85.434L299.837,85.434L299.837,85.434L299.837,85.434z"/>
	<path d="M453.425,72.1c-0.357-0.599-1.039-0.942-1.888-0.942l-26.081,0.159c-0.066,0-0.119-0.005-0.16-0.012
		c0.016-0.04,0.04-0.09,0.076-0.149l6.048-9.883c0.375-0.612,1.367-1.18,2.084-1.191l14.164-0.242
		c1.376-0.023,2.945-0.933,3.648-2.115l5.238-8.803c0.43-0.722,0.48-1.479,0.14-2.077c-0.337-0.594-1.005-0.935-1.83-0.935
		l-14.046,0.275c-0.049,0-0.09-0.003-0.124-0.007c0.016-0.036,0.037-0.081,0.068-0.132l3.329-5.45
		c0.372-0.609,1.361-1.169,2.074-1.176l25.308-0.218c1.378-0.012,2.951-0.913,3.658-2.096l5.2-8.706
		c0.432-0.722,0.484-1.67,0.143-2.271c-0.339-0.598-1.01-1.129-1.883-1.129h-0.001l-31.23,0.617
		c-1.032,0.014-2.722,0.112-3.752,0.101l-6.046-0.013c-1.375,0-2.943,0.907-3.647,2.079l-32.898,54.699
		c-0.435,0.724-0.488,1.223-0.145,1.829c0.342,0.605,1.022,0.688,1.867,0.688h0.003l42.081,0.223
		c1.373-0.001,2.96-0.814,3.613-2.023l4.93-9.068C453.762,73.398,453.783,72.7,453.425,72.1z M402.739,84.597L402.739,84.597
		L402.739,84.597L402.739,84.597z"/>
</g>
</svg>
