<?xml version="1.0" encoding="utf-8"?>
<!-- Generator: Adobe Illustrator 16.0.0, SVG Export Plug-In . SVG Version: 6.00 Build 0)  -->
<!DOCTYPE svg PUBLIC "-//W3C//DTD SVG 1.1//EN" "http://www.w3.org/Graphics/SVG/1.1/DTD/svg11.dtd">
<svg version="1.1" id="Layer_1" xmlns="http://www.w3.org/2000/svg" xmlns:xlink="http://www.w3.org/1999/xlink" x="0px" y="0px"
	 width="1077.272px" height="183px" viewBox="0 0 1077.272 183" enable-background="new 0 0 1077.272 183" xml:space="preserve">
<g>
	<path fill="#90B76A" d="M118.265,164.113c7.521,0.797,18.409-12.938,29.928-30.703c-3.592,2.42-6.995,4.916-10.183,7.478
		C123.546,152.502,118.797,161.183,118.265,164.113z"/>
	<path fill="#90B76A" d="M284.661,105.15c-0.459-0.765-1.771-1.277-3.909-1.277c-1.829,0-4.262,0.375-7.281,1.287
		c-12.586,3.804-25.315,18.955-28.978,34.491c-0.589,2.501-1.139,5.923-0.971,9.597c12.386-7.166,23.912-15.584,31.461-23.164
		C283.582,117.453,286.416,108.074,284.661,105.15z"/>
	<path fill="#90B76A" d="M600.075,173.988L600.075,173.988L600.075,173.988z"/>
	<path fill="#90B76A" d="M522.791,175.265v0.003V175.265z"/>
	<path fill="#90B76A" d="M256.749,17.315c-0.055-0.284-0.078-0.4-0.752-0.562c-0.375-0.089-0.818-0.138-1.33-0.138
		c-5.756,0-19.948,6.079-36.346,27.181c-4.833,6.222-9.577,12.907-14.2,19.81c9.233-4.511,17.456-9.182,24.242-13.98
		C253.227,32.048,257.287,20.112,256.749,17.315z"/>
	<path fill="#90B76A" d="M469.032,105.92c-8.392,1.218-14.84,6.292-15.877,8.527c0.729,0.498,2.95,1.62,8.566,2.088
		c5.771,0.482,12.708-2.14,20.348-6.445C478.819,105.606,473.305,105.295,469.032,105.92z"/>
	<path fill="#90B76A" d="M415.879,96.154c20.207-21.787,23.175-34.012,22.913-37.177c-3.211,0.367-14.963,5.868-33.151,30.908
		c-9.551,13.147-17.139,26.229-22.15,38.057C394.718,118.009,405.821,107,415.879,96.154z"/>
	<path fill="#90B76A" d="M365.414,85.247c10.321-14.493,14.743-25.839,15.505-30.826c-3.792,1.875-13.285,8.47-33.033,31.637
		c-16.763,19.666-26.997,35.765-32.561,48.146C336.25,118.039,355.319,99.42,365.414,85.247z"/>
	<path fill="#90B76A" d="M802.911,172.338L802.911,172.338L802.911,172.338z"/>
	<path fill="#90B76A" d="M1014.329,173.599v0.007V173.599z"/>
	<path fill="#90B76A" d="M734.745,175.648v0.008V175.648z"/>
	<path fill="#90B76A" d="M609.642,105.921c0.832-1.431,0.918-2.939,0.236-4.138c-0.68-1.201-2.018-1.9-3.67-1.922l-31.568-0.408
		c-0.172-0.002-0.299-0.021-0.385-0.043c0.027-0.086,0.078-0.205,0.168-0.352l6.562-10.742c0.73-1.201,2.68-2.305,4.086-2.316
		l49.883-0.43c2.717-0.023,5.816-1.799,7.211-4.132l10.254-17.164c0.852-1.423,0.953-2.801,0.281-3.985
		c-0.668-1.177-1.99-1.734-3.713-1.734h-0.002l-61.561,0.722c-2.033,0.028-5.361-0.025-7.395-0.048l-8.438-0.116
		c-0.979-0.354-2.066-0.453-3.152-0.193c-0.219,0.053-0.438,0.104-0.656,0.159c-1.078,0.054-2.193,0.364-3.236,0.871
		c-19.711,5.828-38.946,19.817-56.042,32.25c-5.825,4.236-11.545,8.396-17.022,12.049c-5.743-8.58-16.535-11.735-28.931-8.232
		c-10.593,2.991-21.394,10.924-20.545,19.734c0.453,4.711,4.082,10.582,18.792,11.81c7.72,0.646,15.814-1.995,24.417-6.563
		c0.26,7.578-2.387,16.498-7.614,24.773c-8.458,13.391-21.132,21.336-33.89,21.164c-5.987-0.062-7.874-2.707-8.771-4.689
		c-3.273-7.232,0.484-21.23,6.167-29.804c0.797-1.042,1.6-2.104,2.4-3.18l-8.628-6.914c-0.906,1.054-1.792,2.222-2.646,3.483
		c-27.796,36.281-46.745,43.613-52.291,39.541c-2.452-1.805-4.331-7.467-2.568-17.736c14.463-11.464,30.169-26.23,46.613-43.958
		c19.229-20.735,28.618-39.042,25.114-48.971c-1.299-3.681-4.261-6.113-8.121-6.675c-10.565-1.548-27.104,11.682-44.295,35.351
		c-15.303,21.065-25.317,41.446-29.202,57.868c-18.937,14.678-36.971,24.552-49.53,23.492c-4.855-0.405-6.398-2.836-7.136-4.629
		c-0.84-2.039-1.162-4.793-0.818-8.252c3.786-2.654,7.225-5.195,10.149-7.421c22.482-17.114,43.278-37.338,54.273-52.776
		c6.656-9.349,11.97-18.875,14.962-26.825c3.861-10.259,3.57-16.938-0.892-20.417c-6.716-5.239-16.595,2.37-19.841,4.872
		c-7.677,5.915-17.498,15.869-29.189,29.585c-22.222,26.07-35.832,49.156-39.58,66.514c-17.447,11.788-32.744,19.078-42.427,20.027
		c-3.635,0.354-6.224-0.172-7.701-1.566c-1.22-1.152-2.221-2.391-3.037-3.685c14.143-7.929,27.298-17.443,36.101-26.279
		c11.753-11.799,16.411-25.958,11.327-34.433c-2.297-3.828-8.455-9.555-23.877-4.891c-16.544,4.999-31.915,22.893-36.547,42.543
		c-1.5,6.365-1.719,12.367-0.707,17.799c-1.216,0.606-2.433,1.198-3.646,1.77c-18.14,8.547-29.082,9.854-33.063,8.609
		c1.293-4.811,10.312-17.041,15.874-24.582c13.95-18.918,24.969-33.86,18.439-42.978c-4.335-6.048-13.723-6.233-31.392-0.618
		c-7.146,2.273-14.045,4.84-20.631,7.623c4.615-7.771,9.444-15.861,14.453-23.919c16.226-6.927,30.667-14.355,41.7-22.156
		c23.059-16.303,35.036-32.135,32.862-43.434c-0.905-4.707-4.199-8.071-9.037-9.23c-14.496-3.479-35.049,13.072-48.99,31.013
		c-8.373,10.778-16.415,22.795-24.038,34.935c-70.074,29.11-173.787,49.65-175.078,49.903c-2.998,0.587-4.953,3.494-4.365,6.493
		c0.587,2.998,3.493,4.953,6.492,4.365c4.97-0.974,94.067-18.623,163.267-44.969c-3.049,5.067-6.019,10.072-8.9,14.928
		c-2.067,3.484-4.165,7.021-6.279,10.551c-33.235,17.517-54.781,39.558-53.467,52.697c0.507,5.066,4.276,8.593,9.836,9.197
		c0.616,0.067,1.229,0.102,1.842,0.102c15.788-0.002,30.703-22.01,49.738-53.729c10.581-5.353,22.054-10.042,33.948-13.823
		c13.008-4.137,17.582-3.699,18.884-3.362c-0.073,1.024-0.697,3.92-4.588,10.347c-3.575,5.906-8.671,12.816-13.6,19.5
		c-5.491,7.445-10.676,14.479-14.082,20.441c-1.928,3.378-7.794,13.652-0.633,19.027c9.837,7.37,30.186,0.305,45.524-6.922
		c0.936-0.439,1.872-0.891,2.807-1.351c1.425,2.397,3.184,4.596,5.27,6.562c3.908,3.688,9.417,5.212,16.375,4.532
		c12.157-1.191,27.352-8.958,40.621-17.337c0.288,1.866,0.765,3.612,1.432,5.231c2.77,6.724,8.609,10.787,16.444,11.441
		c12.452,1.032,29.151-5.752,48.644-19.391c0.205,8.022,2.713,14.228,7.709,17.904c11.148,8.209,28.805,0.645,49.312-20.338
		c-0.186,4.301,0.325,8.799,2.163,12.861c3.224,7.124,9.876,11.1,18.732,11.191C443.745,178,443.89,178,444.039,178
		c16.472,0,32.488-9.812,42.917-26.319c7.781-12.317,10.826-25.76,8.667-36.896c6.188-4.033,12.64-8.727,19.393-13.639
		c12.379-9.003,25.044-18.208,37.822-24.605l-56.753,94.341c-0.857,1.424-0.963,2.929-0.291,4.129
		c0.671,1.199,2.009,1.609,3.67,1.625l23.271-0.08h0.056c2.711,0,5.8-1.465,7.183-3.787l23.662-39.835
		c0.689-1.155,2.91-2.212,3.91-2.212v0.01l32.158,0.811l0.174,0.067c2.703,0,5.777-1.714,7.123-4.028L609.642,105.921z
		 M461.721,116.535c-5.616-0.469-7.837-1.592-8.566-2.088c1.038-2.236,7.485-7.311,15.877-8.527
		c4.273-0.625,9.787-0.313,13.037,4.171C474.429,114.396,467.493,117.019,461.721,116.535z M405.64,89.886
		c18.188-25.04,29.94-30.541,33.151-30.908c0.263,3.165-2.706,15.39-22.913,37.177c-10.059,10.846-21.161,21.854-32.39,31.788
		C388.501,116.115,396.089,103.033,405.64,89.886z M347.885,86.058c19.748-23.167,29.241-29.762,33.033-31.637
		c-0.762,4.987-5.184,16.333-15.505,30.826c-10.094,14.173-29.163,32.792-50.089,48.957
		C320.89,121.822,331.124,105.724,347.885,86.058z M218.322,43.797c16.398-21.103,30.589-27.181,36.346-27.181
		c0.511,0,0.955,0.049,1.33,0.138c0.674,0.163,0.697,0.279,0.752,0.562c0.538,2.796-3.522,14.731-28.385,32.311
		c-6.786,4.798-15.009,9.469-24.242,13.98C208.745,56.704,213.487,50.019,218.322,43.797z M118.265,164.113
		c0.533-2.931,5.283-11.611,19.745-23.226c3.188-2.562,6.591-5.058,10.183-7.478C136.672,151.176,125.786,164.91,118.265,164.113z
		 M244.493,139.651c3.663-15.538,16.392-30.688,28.978-34.491c3.019-0.912,5.452-1.287,7.281-1.287c2.138,0,3.45,0.513,3.909,1.277
		c1.754,2.924-1.079,12.301-9.678,20.934c-7.549,7.58-19.075,15.998-31.461,23.164C243.354,145.574,243.903,142.152,244.493,139.651
		z M522.791,175.265L522.791,175.265v0.003V175.265z"/>
	<path fill="#90B76A" d="M1071.599,57.5c-0.662-1.176-1.979-1.85-3.615-1.85l-92.867,1.501c-2.709,0.045-5.807,1.829-7.201,4.15
		l-64.848,107.811c-0.855,1.422-0.961,2.928-0.291,4.129c0.67,1.2,2.008,1.899,3.668,1.918l23.324,0.244
		c2.664,0,5.811-1.643,7.318-3.82l21.453-30.98c0.215-0.311,0.432-0.449,0.551-0.449s0.336,0.143,0.545,0.459l20.164,30.391
		c1.48,2.231,4.617,3.994,7.295,4.041l27.127,0.515h0.107c1.637,0,2.951-0.72,3.607-1.896c0.66-1.186,0.539-2.698-0.334-4.113
		l-26.896-43.586c-0.109-0.178-0.162-0.32-0.188-0.408c0.086-0.03,0.23-0.064,0.439-0.073l37.785-1.458
		c2.688-0.102,5.77-1.915,7.168-4.215l35.377-58.211C1072.151,60.178,1072.265,58.684,1071.599,57.5z M988.38,96.099l6.469-11.272
		c1.055-1.837,3.65-3.334,5.77-3.327l18.273,0.061c2.117,0.008,2.988,1.517,1.936,3.354l-6.469,11.271
		c-1.053,1.836-3.646,3.334-5.768,3.327l-18.277-0.062C988.196,99.443,987.325,97.935,988.38,96.099z M1014.329,173.599
		L1014.329,173.599v0.006V173.599z"/>
	<path fill="#90B76A" d="M854.966,58.459c-0.604-1.203-1.922-1.892-3.646-1.892l-20.359,0.097c-2.633,0.013-5.844,1.585-7.471,3.659
		L771.2,127.029l15.719-64.231c0.367-1.495,0.076-2.988-0.795-4.096c-0.865-1.104-2.236-1.737-3.762-1.737l-18.482,0.42
		c-2.881,0.064-5.686,2.306-6.385,5.102l-27.287,109.192c-0.373,1.494-0.09,2.987,0.779,4.098c0.861,1.106,2.23,1.74,3.758,1.74
		l30.107-0.673c2.639-0.059,5.814-1.701,7.391-3.82l82.078-110.517C855.337,61.14,855.571,59.665,854.966,58.459z M734.745,175.648
		L734.745,175.648v0.008V175.648z"/>
	<path fill="#90B76A" d="M702.823,97.729l-27.686,0.538c-0.098,0-0.178-0.006-0.244-0.016c0.031-0.07,0.074-0.157,0.137-0.258
		l6.561-10.736c0.732-1.201,2.682-2.305,4.088-2.317l49.883-0.433c2.719-0.025,5.816-1.8,7.211-4.133l10.254-17.16
		c0.852-1.423,0.951-2.77,0.279-3.954c-0.668-1.179-1.988-1.705-3.713-1.705h-0.002l-61.559,0.692
		c-2.035,0.029-5.365-0.042-7.396-0.062l-11.92-0.158c-2.709,0-5.801,1.724-7.188,4.034l-64.846,107.791
		c-0.857,1.427-0.963,2.78-0.287,3.976c0.676,1.193,2.018,1.728,3.682,1.728h0.006l82.943,0.054
		c2.705-0.002,5.836-1.797,7.121-4.181l9.721-17.974c0.779-1.447,0.822-2.938,0.119-4.121c-0.705-1.18-2.049-1.848-3.723-1.848
		l-51.408,0.318c-0.131,0-0.234-0.008-0.314-0.021c0.031-0.078,0.078-0.176,0.15-0.293l11.922-19.479
		c0.738-1.206,2.695-2.324,4.107-2.348l27.92-0.477c2.711-0.046,5.803-1.838,7.189-4.17l10.324-17.352
		c0.846-1.422,0.945-2.916,0.275-4.096C705.767,98.4,704.45,97.729,702.823,97.729z M600.075,173.988L600.075,173.988
		L600.075,173.988L600.075,173.988z"/>
	<path fill="#90B76A" d="M902.823,147.705c-0.703-1.182-2.047-1.857-3.723-1.857l-51.408,0.314c-0.133,0-0.236-0.011-0.314-0.024
		c0.029-0.078,0.078-0.179,0.15-0.295l11.922-19.481c0.736-1.205,2.693-2.324,4.107-2.348l27.92-0.477
		c2.711-0.047,5.805-1.838,7.189-4.17l10.326-17.353c0.846-1.423,0.947-2.916,0.275-4.095c-0.666-1.17-1.98-1.842-3.607-1.842
		l-27.688,0.541c-0.096,0-0.178-0.004-0.244-0.014c0.031-0.072,0.074-0.158,0.137-0.26l6.561-10.743
		c0.734-1.201,2.684-2.305,4.09-2.317l49.885-0.43c2.717-0.023,5.816-1.799,7.211-4.132l10.25-17.161
		c0.852-1.423,0.951-2.945,0.279-4.129c-0.668-1.178-1.988-1.879-3.713-1.879h-0.002l-61.559,0.868
		c-2.035,0.028-5.365,0.047-7.396,0.026l-11.92-0.113c-2.709,0-5.799,1.745-7.188,4.056L799.517,168.19
		c-0.855,1.427-0.963,2.61-0.285,3.806c0.676,1.193,2.016,1.559,3.68,1.559h0.006l82.947,0.229c2.707-0.004,5.836-1.711,7.123-4.095
		l9.717-17.928C903.485,150.316,903.528,148.889,902.823,147.705z M802.911,172.338L802.911,172.338L802.911,172.338
		L802.911,172.338z"/>
</g>
<g>
	<path fill="none" d="M113.265,159.141c7.521,0.797,18.409-12.938,29.928-30.703c-3.592,2.42-6.995,4.916-10.183,7.478
		C118.546,147.529,113.797,156.21,113.265,159.141z"/>
	<path fill="none" d="M279.661,100.178c-0.459-0.765-1.771-1.277-3.909-1.277c-1.829,0-4.262,0.375-7.281,1.287
		c-12.586,3.804-25.315,18.955-28.978,34.491c-0.589,2.501-1.139,5.923-0.971,9.597c12.386-7.166,23.912-15.584,31.461-23.164
		C278.582,112.48,281.416,103.102,279.661,100.178z"/>
	<path fill="none" d="M595.075,169.016L595.075,169.016L595.075,169.016z"/>
	<path fill="none" d="M517.791,170.292v0.003V170.292z"/>
	<path fill="none" d="M251.749,12.343c-0.055-0.284-0.078-0.4-0.752-0.562c-0.375-0.089-0.818-0.138-1.33-0.138
		c-5.756,0-19.948,6.079-36.346,27.181c-4.833,6.222-9.577,12.907-14.2,19.81c9.233-4.511,17.456-9.182,24.242-13.98
		C248.227,27.075,252.287,15.139,251.749,12.343z"/>
	<path fill="none" d="M464.032,100.947c-8.392,1.218-14.84,6.292-15.877,8.527c0.729,0.498,2.95,1.62,8.566,2.088
		c5.771,0.482,12.708-2.14,20.348-6.445C473.819,100.634,468.305,100.322,464.032,100.947z"/>
	<path fill="none" d="M410.879,91.182c20.207-21.787,23.175-34.012,22.913-37.177c-3.211,0.367-14.963,5.868-33.151,30.908
		c-9.551,13.147-17.139,26.229-22.15,38.057C389.718,113.036,400.821,102.027,410.879,91.182z"/>
	<path fill="none" d="M360.414,80.274c10.321-14.493,14.743-25.839,15.505-30.826c-3.792,1.875-13.285,8.47-33.033,31.637
		c-16.763,19.666-26.997,35.765-32.561,48.146C331.25,113.066,350.319,94.447,360.414,80.274z"/>
	<path fill="none" d="M797.911,167.365L797.911,167.365L797.911,167.365z"/>
	<path fill="none" d="M1009.329,168.626v0.007V168.626z"/>
	<path fill="none" d="M729.745,170.676v0.008V170.676z"/>
	<path fill="#FFFFFF" d="M604.642,100.948c0.832-1.431,0.918-2.939,0.236-4.138c-0.68-1.201-2.018-1.9-3.67-1.922L569.64,94.48
		c-0.172-0.002-0.299-0.021-0.385-0.043c0.027-0.086,0.078-0.205,0.168-0.352l6.562-10.742c0.73-1.201,2.68-2.305,4.086-2.316
		l49.883-0.43c2.717-0.023,5.816-1.799,7.211-4.132l10.254-17.164c0.852-1.423,0.953-2.801,0.281-3.985
		c-0.668-1.177-1.99-1.734-3.713-1.734h-0.002l-61.561,0.722c-2.033,0.028-5.361-0.025-7.395-0.048l-8.438-0.116
		c-0.979-0.354-2.066-0.453-3.152-0.193c-0.219,0.053-0.438,0.104-0.656,0.159c-1.078,0.054-2.193,0.364-3.236,0.871
		c-19.711,5.828-38.946,19.817-56.042,32.25c-5.825,4.237-11.545,8.397-17.022,12.049c-5.743-8.58-16.535-11.735-28.931-8.232
		c-10.593,2.991-21.394,10.924-20.545,19.734c0.453,4.711,4.082,10.582,18.792,11.81c7.72,0.646,15.814-1.995,24.417-6.563
		c0.26,7.578-2.387,16.498-7.614,24.773c-8.458,13.391-21.132,21.336-33.89,21.164c-5.987-0.062-7.874-2.707-8.771-4.689
		c-3.273-7.232,0.484-21.23,6.167-29.804c0.797-1.042,1.6-2.104,2.4-3.18l-8.628-6.914c-0.906,1.054-1.792,2.222-2.646,3.483
		c-27.796,36.281-46.745,43.613-52.291,39.541c-2.452-1.805-4.331-7.467-2.568-17.736c14.463-11.464,30.169-26.23,46.613-43.958
		c19.229-20.735,28.618-39.042,25.114-48.971c-1.299-3.681-4.261-6.113-8.121-6.675c-10.565-1.548-27.104,11.682-44.295,35.351
		c-15.303,21.065-25.317,41.446-29.202,57.868c-18.937,14.678-36.971,24.552-49.53,23.492c-4.855-0.405-6.398-2.836-7.136-4.629
		c-0.84-2.039-1.162-4.793-0.818-8.252c3.786-2.654,7.225-5.195,10.149-7.421c22.482-17.114,43.278-37.338,54.273-52.777
		c6.656-9.348,11.97-18.875,14.962-26.825c3.861-10.259,3.57-16.938-0.892-20.417c-6.716-5.239-16.595,2.37-19.841,4.872
		c-7.677,5.915-17.498,15.869-29.189,29.585c-22.222,26.07-35.832,49.156-39.58,66.514c-17.447,11.788-32.744,19.078-42.427,20.027
		c-3.635,0.354-6.224-0.172-7.701-1.566c-1.22-1.152-2.221-2.391-3.037-3.685c14.143-7.929,27.298-17.443,36.101-26.279
		c11.753-11.799,16.411-25.958,11.327-34.433c-2.297-3.828-8.455-9.554-23.877-4.891c-16.544,4.999-31.915,22.893-36.547,42.543
		c-1.5,6.365-1.719,12.367-0.707,17.799c-1.216,0.606-2.433,1.198-3.646,1.77c-18.14,8.547-29.082,9.854-33.063,8.609
		c1.293-4.811,10.312-17.041,15.874-24.582c13.95-18.918,24.969-33.86,18.439-42.978c-4.335-6.048-13.723-6.234-31.392-0.618
		c-7.146,2.273-14.045,4.84-20.631,7.623c4.615-7.771,9.444-15.861,14.453-23.919c16.226-6.927,30.667-14.355,41.7-22.156
		c23.059-16.303,35.036-32.135,32.862-43.434c-0.905-4.707-4.199-8.071-9.037-9.23c-14.496-3.479-35.049,13.072-48.99,31.013
		c-8.373,10.778-16.415,22.795-24.038,34.935C110.474,96.081,6.761,116.621,5.47,116.874c-2.998,0.587-4.953,3.494-4.365,6.493
		c0.587,2.998,3.493,4.953,6.492,4.365c4.97-0.974,94.067-18.623,163.267-44.969c-3.049,5.067-6.019,10.072-8.9,14.928
		c-2.067,3.484-4.165,7.021-6.279,10.551c-33.235,17.517-54.781,39.558-53.467,52.697c0.507,5.066,4.276,8.593,9.836,9.197
		c0.616,0.067,1.229,0.102,1.842,0.102c15.788-0.002,30.703-22.01,49.738-53.729c10.581-5.353,22.054-10.042,33.948-13.823
		c13.008-4.137,17.582-3.699,18.884-3.362c-0.073,1.024-0.697,3.92-4.588,10.347c-3.575,5.906-8.671,12.816-13.6,19.5
		c-5.491,7.445-10.676,14.479-14.082,20.441c-1.928,3.378-7.794,13.652-0.633,19.027c9.837,7.37,30.186,0.305,45.524-6.922
		c0.936-0.439,1.872-0.891,2.807-1.351c1.425,2.397,3.184,4.596,5.27,6.562c3.908,3.688,9.417,5.212,16.375,4.532
		c12.157-1.191,27.352-8.958,40.621-17.337c0.288,1.866,0.765,3.612,1.432,5.231c2.77,6.724,8.609,10.787,16.444,11.441
		c12.452,1.032,29.151-5.752,48.644-19.391c0.205,8.022,2.713,14.228,7.709,17.904c11.148,8.209,28.805,0.645,49.312-20.338
		c-0.186,4.301,0.325,8.799,2.163,12.861c3.224,7.124,9.876,11.1,18.732,11.191c0.148,0.002,0.294,0.002,0.442,0.002
		c16.472,0,32.488-9.812,42.917-26.319c7.781-12.317,10.826-25.76,8.667-36.896c6.188-4.033,12.64-8.727,19.393-13.639
		c12.379-9.003,25.044-18.208,37.822-24.605l-56.753,94.341c-0.857,1.424-0.963,2.929-0.291,4.129
		c0.671,1.199,2.009,1.609,3.67,1.625l23.271-0.08h0.056c2.711,0,5.8-1.465,7.183-3.787l23.662-39.835
		c0.689-1.155,2.91-2.212,3.91-2.212v0.01l32.158,0.811l0.174,0.067c2.703,0,5.777-1.714,7.123-4.028L604.642,100.948z
		 M456.721,111.562c-5.616-0.469-7.837-1.592-8.566-2.088c1.038-2.236,7.485-7.311,15.877-8.527
		c4.273-0.625,9.787-0.313,13.037,4.171C469.429,109.423,462.493,112.046,456.721,111.562z M400.64,84.913
		c18.188-25.04,29.94-30.541,33.151-30.908c0.263,3.165-2.706,15.39-22.913,37.177c-10.059,10.846-21.161,21.854-32.39,31.788
		C383.501,111.143,391.089,98.061,400.64,84.913z M342.885,81.085c19.748-23.167,29.241-29.762,33.033-31.637
		c-0.762,4.987-5.184,16.333-15.505,30.826c-10.094,14.173-29.163,32.792-50.089,48.957
		C315.89,116.85,326.124,100.751,342.885,81.085z M213.322,38.824c16.398-21.103,30.589-27.181,36.346-27.181
		c0.511,0,0.955,0.049,1.33,0.138c0.674,0.163,0.697,0.279,0.752,0.562c0.538,2.796-3.522,14.731-28.385,32.311
		c-6.786,4.798-15.009,9.469-24.242,13.98C203.745,51.731,208.487,45.046,213.322,38.824z M113.265,159.141
		c0.533-2.931,5.283-11.611,19.745-23.226c3.188-2.562,6.591-5.058,10.183-7.478C131.672,146.203,120.786,159.938,113.265,159.141z
		 M239.493,134.679c3.663-15.538,16.392-30.688,28.978-34.491c3.019-0.912,5.452-1.287,7.281-1.287c2.138,0,3.45,0.513,3.909,1.277
		c1.754,2.924-1.079,12.301-9.678,20.934c-7.549,7.58-19.075,15.998-31.461,23.164C238.354,140.602,238.903,137.18,239.493,134.679z
		 M517.791,170.292L517.791,170.292v0.003V170.292z"/>
	<path fill="#FFFFFF" d="M1066.599,52.527c-0.662-1.176-1.979-1.85-3.615-1.85l-92.867,1.501c-2.709,0.045-5.807,1.829-7.201,4.15
		l-64.848,107.811c-0.855,1.422-0.961,2.928-0.291,4.129c0.67,1.2,2.008,1.899,3.668,1.918l23.324,0.244
		c2.664,0,5.811-1.643,7.318-3.82l21.453-30.98c0.215-0.311,0.432-0.449,0.551-0.449s0.336,0.143,0.545,0.459l20.164,30.391
		c1.48,2.231,4.617,3.994,7.295,4.041l27.127,0.515h0.107c1.637,0,2.951-0.72,3.607-1.896c0.66-1.186,0.539-2.698-0.334-4.113
		l-26.896-43.586c-0.109-0.178-0.162-0.32-0.188-0.408c0.086-0.03,0.23-0.064,0.439-0.073l37.785-1.458
		c2.688-0.102,5.77-1.915,7.168-4.215l35.377-58.211C1067.151,55.205,1067.265,53.711,1066.599,52.527z M983.38,91.126l6.469-11.272
		c1.055-1.837,3.65-3.334,5.77-3.327l18.273,0.061c2.117,0.008,2.988,1.517,1.936,3.354l-6.469,11.271
		c-1.053,1.836-3.646,3.334-5.768,3.327l-18.277-0.062C983.196,94.471,982.325,92.962,983.38,91.126z M1009.329,168.626
		L1009.329,168.626v0.006V168.626z"/>
	<path fill="#FFFFFF" d="M849.966,53.487c-0.604-1.203-1.922-1.892-3.646-1.892l-20.359,0.097c-2.633,0.013-5.844,1.585-7.471,3.659
		L766.2,122.057l15.719-64.231c0.367-1.495,0.076-2.988-0.795-4.096c-0.865-1.104-2.236-1.737-3.762-1.737l-18.482,0.42
		c-2.881,0.064-5.686,2.306-6.385,5.102l-27.287,109.192c-0.373,1.494-0.09,2.987,0.779,4.098c0.861,1.106,2.23,1.74,3.758,1.74
		l30.107-0.673c2.639-0.059,5.814-1.701,7.391-3.82l82.078-110.517C850.337,56.167,850.571,54.692,849.966,53.487z M729.745,170.676
		L729.745,170.676v0.008V170.676z"/>
	<path fill="#FFFFFF" d="M697.823,92.757l-27.686,0.538c-0.098,0-0.178-0.006-0.244-0.016c0.031-0.07,0.074-0.157,0.137-0.258
		l6.561-10.736c0.732-1.201,2.682-2.305,4.088-2.317l49.883-0.433c2.719-0.025,5.816-1.8,7.211-4.133l10.254-17.16
		c0.852-1.423,0.951-2.77,0.279-3.954c-0.668-1.179-1.988-1.705-3.713-1.705h-0.002l-61.559,0.692
		c-2.035,0.029-5.365-0.042-7.396-0.062l-11.92-0.158c-2.709,0-5.801,1.724-7.188,4.034L591.683,164.88
		c-0.857,1.427-0.963,2.78-0.287,3.976c0.676,1.193,2.018,1.728,3.682,1.728h0.006l82.943,0.054
		c2.705-0.002,5.836-1.797,7.121-4.181l9.721-17.974c0.779-1.447,0.822-2.938,0.119-4.121c-0.705-1.18-2.049-1.848-3.723-1.848
		l-51.408,0.318c-0.131,0-0.234-0.008-0.314-0.021c0.031-0.078,0.078-0.176,0.15-0.293l11.922-19.479
		c0.738-1.206,2.695-2.324,4.107-2.348l27.92-0.477c2.711-0.046,5.803-1.838,7.189-4.17l10.324-17.352
		c0.846-1.422,0.945-2.916,0.275-4.096C700.767,93.428,699.45,92.757,697.823,92.757z M595.075,169.016L595.075,169.016
		L595.075,169.016L595.075,169.016z"/>
	<path fill="#FFFFFF" d="M897.823,142.732c-0.703-1.182-2.047-1.857-3.723-1.857l-51.408,0.314c-0.133,0-0.236-0.011-0.314-0.024
		c0.029-0.078,0.078-0.179,0.15-0.295l11.922-19.481c0.736-1.205,2.693-2.324,4.107-2.348l27.92-0.477
		c2.711-0.047,5.805-1.838,7.189-4.17l10.326-17.353c0.846-1.423,0.947-2.916,0.275-4.095c-0.666-1.17-1.98-1.842-3.607-1.842
		l-27.688,0.541c-0.096,0-0.178-0.004-0.244-0.014c0.031-0.072,0.074-0.158,0.137-0.26l6.561-10.743
		c0.734-1.201,2.684-2.305,4.09-2.317l49.885-0.43c2.717-0.023,5.816-1.799,7.211-4.132l10.25-17.161
		c0.852-1.423,0.951-2.945,0.279-4.129c-0.668-1.178-1.988-1.879-3.713-1.879h-0.002l-61.559,0.868
		c-2.035,0.028-5.365,0.047-7.396,0.026l-11.92-0.113c-2.709,0-5.799,1.745-7.188,4.056l-64.848,107.799
		c-0.855,1.427-0.963,2.61-0.285,3.806c0.676,1.193,2.016,1.559,3.68,1.559h0.006l82.947,0.229c2.707-0.004,5.836-1.711,7.123-4.095
		l9.717-17.928C898.485,145.344,898.528,143.916,897.823,142.732z M797.911,167.365L797.911,167.365L797.911,167.365
		L797.911,167.365z"/>
</g>
</svg>
